STARTFONT 2.1
COMMENT Created by fdbbdf
FONT times22
SIZE 22 78 78
FONTBOUNDINGBOX 26 24 -1 -6
STARTPROPERTIES 4
Ownership "  Copyright (c) 1984 Adobe Systems, Inc.  /adobe/fonttools/bitmaps/stdfontvec.ps TM24.bits  TOTAL BITMAP BYTES 3584  GUIDELINES -5 0 12 17 DONE  WIDTHERR -187 -174  "
FONT_ASCENT 18
FONT_DESCENT 6
DEFAULT_CHAR 32
ENDPROPERTIES
CHARS 95
STARTCHAR sp
ENCODING -1 32
SWIDTH 0 0
DWIDTH 6 0
BBX 0 0 0 0
BITMAP
ENDCHAR
STARTCHAR !
ENCODING -1 33
SWIDTH 0 0
DWIDTH 8 0
BBX 3 17 3 -1
BITMAP
c000
c000
c000
c000
c000
c000
c000
c000
c000
4000
4000
4000
0000
0000
0000
c000
c000
ENDCHAR
STARTCHAR "
ENCODING -1 34
SWIDTH 0 0
DWIDTH 10 0
BBX 6 5 1 11
BITMAP
cc00
cc00
cc00
8800
8800
ENDCHAR
STARTCHAR #
ENCODING -1 35
SWIDTH 0 0
DWIDTH 13 0
BBX 11 17 1 -1
BITMAP
0880
0880
0880
0880
0880
7fe0
7fe0
1100
1100
1100
ffc0
ffc0
2200
2200
2200
2200
2200
ENDCHAR
STARTCHAR $
ENCODING -1 36
SWIDTH 0 0
DWIDTH 12 0
BBX 11 21 0 -3
BITMAP
0400
0400
1f80
34e0
6460
6420
6400
7400
3c00
1e00
0780
07c0
04e0
0460
8460
8460
c4c0
e5c0
3f00
0400
0400
ENDCHAR
STARTCHAR %
ENCODING -1 37
SWIDTH 0 0
DWIDTH 19 0
BBX 17 16 1 -1
BITMAP
1e0c0000
73fc0000
61180000
c1100000
c1300000
c2600000
e6400000
78c00000
018f0000
01398000
03308000
06608000
04608000
0c610000
18730000
103c0000
ENDCHAR
STARTCHAR &
ENCODING -1 38
SWIDTH 0 0
DWIDTH 18 0
BBX 16 17 1 -1
BITMAP
0780
0cc0
1840
1840
18c0
1d80
0f3c
0e18
1e10
3710
6320
c1a0
c1c0
c0c0
e1e1
7f7e
3c1c
ENDCHAR
STARTCHAR '
ENCODING -1 39
SWIDTH 0 0
DWIDTH 8 0
BBX 3 5 3 11
BITMAP
c000
e000
2000
6000
c000
ENDCHAR
STARTCHAR (
ENCODING -1 40
SWIDTH 0 0
DWIDTH 8 0
BBX 6 22 1 -6
BITMAP
0400
0800
1000
3000
2000
6000
6000
c000
c000
c000
c000
c000
c000
c000
c000
6000
6000
2000
3000
1000
0800
0400
ENDCHAR
STARTCHAR )
ENCODING -1 41
SWIDTH 0 0
DWIDTH 8 0
BBX 6 22 1 -6
BITMAP
8000
4000
2000
3000
1000
1800
1800
0c00
0c00
0c00
0c00
0c00
0c00
0c00
0c00
1800
1800
1000
3000
2000
4000
8000
ENDCHAR
STARTCHAR *
ENCODING -1 42
SWIDTH 0 0
DWIDTH 12 0
BBX 9 9 2 7
BITMAP
0c00
0c00
c980
eb80
1c00
eb80
c980
1800
1800
ENDCHAR
STARTCHAR +
ENCODING -1 43
SWIDTH 0 0
DWIDTH 12 0
BBX 10 10 1 1
BITMAP
0c00
0c00
0c00
0c00
ffc0
ffc0
0c00
0c00
0c00
0c00
ENDCHAR
STARTCHAR ,
ENCODING -1 44
SWIDTH 0 0
DWIDTH 7 0
BBX 3 5 2 -4
BITMAP
e000
e000
2000
6000
c000
ENDCHAR
STARTCHAR -
ENCODING -1 45
SWIDTH 0 0
DWIDTH 9 0
BBX 7 2 1 5
BITMAP
fe00
fe00
ENDCHAR
STARTCHAR .
ENCODING -1 46
SWIDTH 0 0
DWIDTH 6 0
BBX 3 2 2 -1
BITMAP
c000
c000
ENDCHAR
STARTCHAR /
ENCODING -1 47
SWIDTH 0 0
DWIDTH 7 0
BBX 7 17 0 -1
BITMAP
0600
0600
0400
0c00
0c00
0800
1800
1800
1000
3000
3000
2000
6000
6000
4000
c000
c000
ENDCHAR
STARTCHAR 0
ENCODING -1 48
SWIDTH 0 0
DWIDTH 12 0
BBX 10 17 1 -1
BITMAP
1e00
3300
6180
6180
c0c0
c0c0
c0c0
c0c0
c0c0
c0c0
c0c0
c0c0
c0c0
6180
6180
3300
1e00
ENDCHAR
STARTCHAR 1
ENCODING -1 49
SWIDTH 0 0
DWIDTH 10 0
BBX 8 17 1 -1
BITMAP
0800
1800
3800
d800
1800
1800
1800
1800
1800
1800
1800
1800
1800
1800
1800
1800
ff00
ENDCHAR
STARTCHAR 2
ENCODING -1 50
SWIDTH 0 0
DWIDTH 12 0
BBX 10 17 1 -1
BITMAP
1c00
7f00
4380
8180
8180
0180
0180
0300
0300
0600
0400
0c00
1800
3000
6040
ffc0
ff80
ENDCHAR
STARTCHAR 3
ENCODING -1 51
SWIDTH 0 0
DWIDTH 11 0
BBX 9 17 1 -1
BITMAP
1c00
7e00
4700
8300
8300
0600
0c00
1e00
0700
0380
0180
0180
0180
0100
c300
e600
7800
ENDCHAR
STARTCHAR 4
ENCODING -1 52
SWIDTH 0 0
DWIDTH 12 0
BBX 10 17 1 -1
BITMAP
0300
0700
0700
0b00
1b00
1300
3300
2300
6300
4300
c300
ffc0
ffc0
0300
0300
0300
0300
ENDCHAR
STARTCHAR 5
ENCODING -1 53
SWIDTH 0 0
DWIDTH 12 0
BBX 10 17 1 -1
BITMAP
1fc0
1f80
2000
2000
6000
7800
7e00
0f80
0380
01c0
00c0
00c0
00c0
00c0
c180
e380
7e00
ENDCHAR
STARTCHAR 6
ENCODING -1 54
SWIDTH 0 0
DWIDTH 12 0
BBX 10 17 1 -1
BITMAP
0380
0e00
1800
3000
3000
6000
6e00
f380
e180
c0c0
c0c0
c0c0
c0c0
e0c0
6180
7b80
1e00
ENDCHAR
STARTCHAR 7
ENCODING -1 55
SWIDTH 0 0
DWIDTH 12 0
BBX 10 17 1 -1
BITMAP
7fc0
ffc0
80c0
0180
0180
0100
0300
0300
0200
0600
0600
0400
0c00
0c00
0800
1800
1800
ENDCHAR
STARTCHAR 8
ENCODING -1 56
SWIDTH 0 0
DWIDTH 12 0
BBX 10 17 1 -1
BITMAP
1e00
3300
6180
6180
7180
3b00
1e00
1e00
3700
6380
4180
c0c0
c0c0
c0c0
6180
7380
1e00
ENDCHAR
STARTCHAR 9
ENCODING -1 57
SWIDTH 0 0
DWIDTH 12 0
BBX 10 17 1 -1
BITMAP
1e00
7780
6180
c1c0
c0c0
c0c0
c0c0
c0c0
61c0
73c0
1d80
0180
0300
0300
0600
1c00
7000
ENDCHAR
STARTCHAR :
ENCODING -1 58
SWIDTH 0 0
DWIDTH 6 0
BBX 3 11 2 -1
BITMAP
c000
c000
0000
0000
0000
0000
0000
0000
0000
c000
c000
ENDCHAR
STARTCHAR ;
ENCODING -1 59
SWIDTH 0 0
DWIDTH 7 0
BBX 3 14 2 -4
BITMAP
e000
e000
0000
0000
0000
0000
0000
0000
0000
e000
e000
2000
6000
4000
ENDCHAR
STARTCHAR <
ENCODING -1 60
SWIDTH 0 0
DWIDTH 13 0
BBX 11 11 1 1
BITMAP
0060
01c0
0700
1c00
7000
c000
7000
1c00
0700
01c0
0060
ENDCHAR
STARTCHAR =
ENCODING -1 61
SWIDTH 0 0
DWIDTH 12 0
BBX 9 6 1 3
BITMAP
ff80
ff80
0000
0000
ff80
ff80
ENDCHAR
STARTCHAR >
ENCODING -1 62
SWIDTH 0 0
DWIDTH 13 0
BBX 11 11 1 1
BITMAP
c000
7000
1c00
0700
01c0
0060
01c0
0700
1c00
7000
c000
ENDCHAR
STARTCHAR ?
ENCODING -1 63
SWIDTH 0 0
DWIDTH 11 0
BBX 8 17 2 -1
BITMAP
3c00
4600
8300
c300
c300
0600
0e00
0c00
1800
1800
3000
3000
3000
0000
0000
3000
3000
ENDCHAR
STARTCHAR @
ENCODING -1 64
SWIDTH 0 0
DWIDTH 22 0
BBX 18 20 2 -4
BITMAP
03f80000
0f0e0000
1c030000
38018000
70008000
60ecc000
e1fc4000
c38c4000
c30c4000
c60c4000
c6184000
c618c000
c6188000
c6398000
637b0000
61de0000
30000000
18000000
0e0c0000
03f00000
ENDCHAR
STARTCHAR A
ENCODING -1 65
SWIDTH 0 0
DWIDTH 17 0
BBX 17 17 0 -1
BITMAP
00c00000
00c00000
00c00000
01e00000
01600000
03600000
02300000
02300000
06300000
04180000
0ff80000
080c0000
080c0000
180c0000
10060000
30060000
781f8000
ENDCHAR
STARTCHAR B
ENCODING -1 66
SWIDTH 0 0
DWIDTH 16 0
BBX 14 17 1 -1
BITMAP
ffc0
3070
3030
3018
3018
3018
3030
3040
3ff0
3038
3018
300c
300c
300c
3018
3078
ffe0
ENDCHAR
STARTCHAR C
ENCODING -1 67
SWIDTH 0 0
DWIDTH 16 0
BBX 14 17 1 -1
BITMAP
07e4
1c3c
380c
6004
6004
c000
c000
c000
c000
c000
c000
c000
6000
6004
380c
1e38
07e0
ENDCHAR
STARTCHAR D
ENCODING -1 68
SWIDTH 0 0
DWIDTH 17 0
BBX 15 17 1 -1
BITMAP
ffc0
3070
3038
300c
300c
3006
3006
3006
3006
3006
3006
3006
300c
300c
3038
3070
ffc0
ENDCHAR
STARTCHAR E
ENCODING -1 69
SWIDTH 0 0
DWIDTH 15 0
BBX 13 17 1 -1
BITMAP
fff0
3030
3010
3000
3000
3000
3040
3040
3fc0
3040
3040
3000
3000
3008
3008
3018
fff8
ENDCHAR
STARTCHAR F
ENCODING -1 70
SWIDTH 0 0
DWIDTH 14 0
BBX 12 17 1 -1
BITMAP
fff0
3030
3010
3010
3000
3000
3020
3020
3fe0
3020
3020
3000
3000
3000
3000
3000
fc00
ENDCHAR
STARTCHAR G
ENCODING -1 71
SWIDTH 0 0
DWIDTH 18 0
BBX 16 17 1 -1
BITMAP
07e4
1c3c
380c
6004
6004
c000
c000
c000
c000
c03f
c00c
c00c
600c
600c
380c
1e3c
07e0
ENDCHAR
STARTCHAR H
ENCODING -1 72
SWIDTH 0 0
DWIDTH 19 0
BBX 17 17 1 -1
BITMAP
fc1f8000
30060000
30060000
30060000
30060000
30060000
30060000
30060000
3ffe0000
30060000
30060000
30060000
30060000
30060000
30060000
30060000
fc1f8000
ENDCHAR
STARTCHAR I
ENCODING -1 73
SWIDTH 0 0
DWIDTH 8 0
BBX 6 17 1 -1
BITMAP
fc00
3000
3000
3000
3000
3000
3000
3000
3000
3000
3000
3000
3000
3000
3000
3000
fc00
ENDCHAR
STARTCHAR J
ENCODING -1 74
SWIDTH 0 0
DWIDTH 10 0
BBX 9 17 1 -1
BITMAP
1f80
0600
0600
0600
0600
0600
0600
0600
0600
0600
0600
0600
0600
0600
c600
cc00
7800
ENDCHAR
STARTCHAR K
ENCODING -1 75
SWIDTH 0 0
DWIDTH 17 0
BBX 16 17 1 -1
BITMAP
fc7e
3018
3030
3060
30c0
3180
3300
3e00
3e00
3700
3380
31c0
30e0
3070
3038
301c
fc3f
ENDCHAR
STARTCHAR L
ENCODING -1 76
SWIDTH 0 0
DWIDTH 15 0
BBX 13 17 1 -1
BITMAP
fc00
3000
3000
3000
3000
3000
3000
3000
3000
3000
3000
3000
3000
3008
3008
3018
fff8
ENDCHAR
STARTCHAR M
ENCODING -1 77
SWIDTH 0 0
DWIDTH 22 0
BBX 21 17 1 -1
BITMAP
f0007800
30006000
3800e000
3800e000
2c016000
2c016000
26026000
26026000
23046000
23046000
21886000
21886000
20d06000
20d06000
20606000
20606000
f861f800
ENDCHAR
STARTCHAR N
ENCODING -1 78
SWIDTH 0 0
DWIDTH 18 0
BBX 16 17 1 -1
BITMAP
f81f
3c04
2c04
2604
2604
2304
2304
2184
2184
20c4
20c4
2064
2064
2034
2034
201c
f81c
ENDCHAR
STARTCHAR O
ENCODING -1 79
SWIDTH 0 0
DWIDTH 18 0
BBX 16 17 1 -1
BITMAP
07e0
1c38
381c
6006
6006
c003
c003
c003
c003
c003
c003
c003
6006
6006
381c
1c38
07e0
ENDCHAR
STARTCHAR P
ENCODING -1 80
SWIDTH 0 0
DWIDTH 15 0
BBX 13 17 1 -1
BITMAP
ffc0
3070
3030
3018
3018
3018
3030
3070
3fc0
3000
3000
3000
3000
3000
3000
3000
fc00
ENDCHAR
STARTCHAR Q
ENCODING -1 81
SWIDTH 0 0
DWIDTH 18 0
BBX 16 22 1 -6
BITMAP
07e0
1c38
381c
6006
6006
c003
c003
c003
c003
c003
c003
c003
6006
6006
381c
1c38
07e0
01c0
00e0
0070
0038
000f
ENDCHAR
STARTCHAR R
ENCODING -1 82
SWIDTH 0 0
DWIDTH 17 0
BBX 17 17 1 -1
BITMAP
ffc00000
30700000
30300000
30180000
30180000
30180000
30300000
30700000
3fc00000
37000000
33800000
31c00000
30e00000
30700000
30380000
301c0000
fc3f0000
ENDCHAR
STARTCHAR S
ENCODING -1 83
SWIDTH 0 0
DWIDTH 13 0
BBX 11 17 1 -1
BITMAP
1e40
61c0
c0c0
c040
c040
e000
7800
1e00
0f80
03c0
00e0
0060
8060
8060
c040
e180
9f00
ENDCHAR
STARTCHAR T
ENCODING -1 84
SWIDTH 0 0
DWIDTH 15 0
BBX 14 17 1 -1
BITMAP
fffc
c30c
8304
8304
0300
0300
0300
0300
0300
0300
0300
0300
0300
0300
0300
0300
0fc0
ENDCHAR
STARTCHAR U
ENCODING -1 85
SWIDTH 0 0
DWIDTH 18 0
BBX 16 17 1 -1
BITMAP
fc1f
3004
3004
3004
3004
3004
3004
3004
3004
3004
3004
3004
3004
3008
1808
1c30
07e0
ENDCHAR
STARTCHAR V
ENCODING -1 86
SWIDTH 0 0
DWIDTH 17 0
BBX 17 17 0 -1
BITMAP
fc1f8000
30060000
30040000
180c0000
18080000
18080000
0c180000
0c100000
06300000
06200000
06200000
03600000
03400000
03c00000
01800000
01800000
01800000
ENDCHAR
STARTCHAR W
ENCODING -1 87
SWIDTH 0 0
DWIDTH 25 0
BBX 25 17 0 -1
BITMAP
fc3f1f80
300c0600
300c0600
181e0400
18160400
18160c00
0c330800
0c230800
06210800
06619800
06419000
0340d000
0340d000
0380e000
01806000
01806000
01806000
ENDCHAR
STARTCHAR X
ENCODING -1 88
SWIDTH 0 0
DWIDTH 19 0
BBX 18 17 0 -1
BITMAP
fe0f8000
38060000
1c040000
0e080000
06100000
07200000
03c00000
01c00000
00e00000
01700000
02380000
041c0000
080c0000
080e0000
10070000
30038000
fc0fc000
ENDCHAR
STARTCHAR Y
ENCODING -1 89
SWIDTH 0 0
DWIDTH 16 0
BBX 16 17 0 -1
BITMAP
fc3f
300c
3808
1818
1c10
0c30
0620
0660
0340
03c0
0180
0180
0180
0180
0180
0180
07e0
ENDCHAR
STARTCHAR Z
ENCODING -1 90
SWIDTH 0 0
DWIDTH 15 0
BBX 13 17 1 -1
BITMAP
7ff8
6038
4070
40e0
00c0
01c0
0380
0300
0700
0e00
0c00
1c00
3800
3008
7008
e018
fff8
ENDCHAR
STARTCHAR [
ENCODING -1 91
SWIDTH 0 0
DWIDTH 8 0
BBX 5 21 2 -5
BITMAP
f800
c000
c000
c000
c000
c000
c000
c000
c000
c000
c000
c000
c000
c000
c000
c000
c000
c000
c000
c000
f800
ENDCHAR
STARTCHAR \
ENCODING -1 92
SWIDTH 0 0
DWIDTH 7 0
BBX 7 17 0 -1
BITMAP
c000
c000
4000
6000
6000
2000
3000
3000
1000
1800
1800
0800
0c00
0c00
0400
0600
0600
ENDCHAR
STARTCHAR ]
ENCODING -1 93
SWIDTH 0 0
DWIDTH 8 0
BBX 5 21 1 -5
BITMAP
f800
1800
1800
1800
1800
1800
1800
1800
1800
1800
1800
1800
1800
1800
1800
1800
1800
1800
1800
1800
f800
ENDCHAR
STARTCHAR ^
ENCODING -1 94
SWIDTH 0 0
DWIDTH 11 0
BBX 9 9 1 7
BITMAP
0800
1c00
1400
3600
2200
6300
4100
c180
8080
ENDCHAR
STARTCHAR _
ENCODING -1 95
SWIDTH 0 0
DWIDTH 13 0
BBX 13 1 0 -6
BITMAP
fff8
ENDCHAR
STARTCHAR `
ENCODING -1 96
SWIDTH 0 0
DWIDTH 7 0
BBX 3 5 2 11
BITMAP
6000
c000
8000
e000
6000
ENDCHAR
STARTCHAR a
ENCODING -1 97
SWIDTH 0 0
DWIDTH 11 0
BBX 9 12 1 -1
BITMAP
3e00
6700
6300
0300
0700
1b00
6300
c300
c300
c700
fb00
7180
ENDCHAR
STARTCHAR b
ENCODING -1 98
SWIDTH 0 0
DWIDTH 12 0
BBX 10 17 1 -1
BITMAP
e000
6000
6000
6000
6000
6e00
7380
6180
60c0
60c0
60c0
60c0
60c0
60c0
6180
7380
5e00
ENDCHAR
STARTCHAR c
ENCODING -1 99
SWIDTH 0 0
DWIDTH 11 0
BBX 9 12 1 -1
BITMAP
1f00
6380
4180
c000
c000
c000
c000
c000
e000
7080
7f00
1e00
ENDCHAR
STARTCHAR d
ENCODING -1 100
SWIDTH 0 0
DWIDTH 12 0
BBX 10 17 1 -1
BITMAP
0380
0180
0180
0180
0180
1d80
7380
6180
c180
c180
c180
c180
c180
c180
6180
7380
1ec0
ENDCHAR
STARTCHAR e
ENCODING -1 101
SWIDTH 0 0
DWIDTH 11 0
BBX 9 12 1 -1
BITMAP
1e00
6300
4180
c180
ff80
c000
c000
c000
e000
7080
7f00
1e00
ENDCHAR
STARTCHAR f
ENCODING -1 102
SWIDTH 0 0
DWIDTH 8 0
BBX 7 17 0 -1
BITMAP
0e00
1600
3000
3000
3000
fe00
3000
3000
3000
3000
3000
3000
3000
3000
3000
3000
7800
ENDCHAR
STARTCHAR g
ENCODING -1 103
SWIDTH 0 0
DWIDTH 12 0
BBX 11 17 1 -6
BITMAP
1fe0
3380
6180
6180
6180
6180
3300
3e00
3000
6000
7f80
3fc0
60e0
c060
c060
e0c0
7f00
ENDCHAR
STARTCHAR h
ENCODING -1 104
SWIDTH 0 0
DWIDTH 13 0
BBX 11 17 1 -1
BITMAP
e000
6000
6000
6000
6000
6700
6f80
71c0
60c0
60c0
60c0
60c0
60c0
60c0
60c0
60c0
f1e0
ENDCHAR
STARTCHAR i
ENCODING -1 105
SWIDTH 0 0
DWIDTH 6 0
BBX 4 17 1 -1
BITMAP
6000
6000
0000
0000
0000
e000
6000
6000
6000
6000
6000
6000
6000
6000
6000
6000
f000
ENDCHAR
STARTCHAR j
ENCODING -1 106
SWIDTH 0 0
DWIDTH 6 0
BBX 5 22 -1 -6
BITMAP
1800
1800
0000
0000
0000
3800
1800
1800
1800
1800
1800
1800
1800
1800
1800
1800
1800
1800
1800
1800
d000
e000
ENDCHAR
STARTCHAR k
ENCODING -1 107
SWIDTH 0 0
DWIDTH 13 0
BBX 11 17 1 -1
BITMAP
e000
6000
6000
6000
6000
67c0
6300
6600
6c00
7800
7800
7c00
6e00
6700
6380
61c0
f3e0
ENDCHAR
STARTCHAR l
ENCODING -1 108
SWIDTH 0 0
DWIDTH 6 0
BBX 4 17 1 -1
BITMAP
e000
6000
6000
6000
6000
6000
6000
6000
6000
6000
6000
6000
6000
6000
6000
6000
f000
ENDCHAR
STARTCHAR m
ENCODING -1 109
SWIDTH 0 0
DWIDTH 20 0
BBX 18 12 1 -1
BITMAP
e70e0000
6f9f0000
71e38000
60c18000
60c18000
60c18000
60c18000
60c18000
60c18000
60c18000
60c18000
f1e3c000
ENDCHAR
STARTCHAR n
ENCODING -1 110
SWIDTH 0 0
DWIDTH 13 0
BBX 11 12 1 -1
BITMAP
e700
6f80
71c0
60c0
60c0
60c0
60c0
60c0
60c0
60c0
60c0
f1e0
ENDCHAR
STARTCHAR o
ENCODING -1 111
SWIDTH 0 0
DWIDTH 12 0
BBX 10 12 1 -1
BITMAP
1e00
7380
6180
c0c0
c0c0
c0c0
c0c0
c0c0
c0c0
6180
7380
1e00
ENDCHAR
STARTCHAR p
ENCODING -1 112
SWIDTH 0 0
DWIDTH 12 0
BBX 10 17 1 -6
BITMAP
ee00
7380
6180
60c0
60c0
60c0
60c0
60c0
60c0
6180
7380
6e00
6000
6000
6000
6000
f000
ENDCHAR
STARTCHAR q
ENCODING -1 113
SWIDTH 0 0
DWIDTH 12 0
BBX 10 17 1 -6
BITMAP
1c80
7380
6180
c180
c180
c180
c180
c180
c180
6180
7380
1d80
0180
0180
0180
0180
03c0
ENDCHAR
STARTCHAR r
ENCODING -1 114
SWIDTH 0 0
DWIDTH 9 0
BBX 7 12 1 -1
BITMAP
e600
6e00
7000
6000
6000
6000
6000
6000
6000
6000
6000
f000
ENDCHAR
STARTCHAR s
ENCODING -1 115
SWIDTH 0 0
DWIDTH 10 0
BBX 8 12 1 -1
BITMAP
3e00
4600
c200
c000
f000
7c00
1e00
0700
0300
8300
c600
fc00
ENDCHAR
STARTCHAR t
ENCODING -1 116
SWIDTH 0 0
DWIDTH 8 0
BBX 7 15 0 -1
BITMAP
1000
1000
3000
fe00
3000
3000
3000
3000
3000
3000
3000
3000
3000
3200
1c00
ENDCHAR
STARTCHAR u
ENCODING -1 117
SWIDTH 0 0
DWIDTH 13 0
BBX 11 12 1 -1
BITMAP
e1c0
60c0
60c0
60c0
60c0
60c0
60c0
60c0
60c0
71c0
3ec0
1ce0
ENDCHAR
STARTCHAR v
ENCODING -1 118
SWIDTH 0 0
DWIDTH 12 0
BBX 12 12 0 -1
BITMAP
78f0
3060
3040
1840
1880
1c80
0c80
0d00
0700
0700
0200
0200
ENDCHAR
STARTCHAR w
ENCODING -1 119
SWIDTH 0 0
DWIDTH 19 0
BBX 18 12 0 -1
BITMAP
f1e3c000
60c18000
60c10000
31e30000
31620000
39720000
1b360000
1a340000
0e1c0000
0e1c0000
04080000
04080000
ENDCHAR
STARTCHAR x
ENCODING -1 120
SWIDTH 0 0
DWIDTH 13 0
BBX 11 12 1 -1
BITMAP
f9e0
70c0
3880
1900
0e00
0e00
0600
0b00
1380
2180
61c0
f3e0
ENDCHAR
STARTCHAR y
ENCODING -1 121
SWIDTH 0 0
DWIDTH 12 0
BBX 11 17 0 -6
BITMAP
f1e0
60c0
6080
3080
3180
3100
1900
1b00
1a00
0e00
0e00
0400
0c00
0800
1800
f000
e000
ENDCHAR
STARTCHAR z
ENCODING -1 122
SWIDTH 0 0
DWIDTH 10 0
BBX 8 12 1 -1
BITMAP
ff00
c300
8600
0e00
0c00
1800
1800
3000
7000
6100
e300
ff00
ENDCHAR
STARTCHAR {
ENCODING -1 123
SWIDTH 0 0
DWIDTH 10 0
BBX 8 22 1 -6
BITMAP
0700
0c00
1800
1800
1800
1800
1800
1000
3000
2000
c000
2000
3000
1000
1800
1800
1800
1800
1800
1800
0c00
0700
ENDCHAR
STARTCHAR |
ENCODING -1 124
SWIDTH 0 0
DWIDTH 6 0
BBX 2 22 2 -6
BITMAP
c000
c000
c000
c000
c000
c000
c000
c000
c000
c000
c000
c000
c000
c000
c000
c000
c000
c000
c000
c000
c000
c000
ENDCHAR
STARTCHAR }
ENCODING -1 125
SWIDTH 0 0
DWIDTH 10 0
BBX 8 22 1 -6
BITMAP
e000
3000
1800
1800
1800
1800
1800
0800
0c00
0400
0300
0400
0c00
0800
1800
1800
1800
1800
1800
1800
3000
e000
ENDCHAR
STARTCHAR ~
ENCODING -1 126
SWIDTH 0 0
DWIDTH 13 0
BBX 11 4 1 3
BITMAP
3820
7c60
c7c0
8380
ENDCHAR
ENDFONT
